<?xml version="1.0" standalone="no"?>
<!DOCTYPE svg PUBLIC "-//W3C//DTD SVG 20010904//EN"
 "http://www.w3.org/TR/2001/REC-SVG-20010904/DTD/svg10.dtd">
<svg version="1.0" xmlns="http://www.w3.org/2000/svg"
 width="96.000000pt" height="96.000000pt" viewBox="0 0 96.000000 96.000000"
 preserveAspectRatio="xMidYMid meet">
<metadata>
Created by potrace 1.13, written by Peter Selinger 2001-2015
</metadata>
<g transform="translate(0.000000,96.000000) scale(0.100000,-0.100000)"
fill="#000000" stroke="none">
<path d="M361 944 c-253 -68 -410 -331 -346 -579 67 -256 329 -415 580 -350
256 67 415 329 350 578 -67 259 -333 419 -584 351z m264 -138 c76 -34 139 -97
178 -175 28 -58 32 -75 32 -151 0 -76 -4 -93 -32 -151 -39 -79 -102 -140 -181
-177 -82 -38 -202 -38 -284 0 -79 37 -142 98 -181 177 -29 59 -32 75 -32 151
0 70 5 95 27 141 85 185 295 267 473 185z"/>
<path d="M390 673 c-50 -9 -77 -56 -47 -81 7 -6 42 -12 77 -14 38 -2 64 -7 62
-13 -2 -5 -31 -18 -65 -27 -81 -23 -117 -60 -117 -122 0 -52 27 -92 78 -113
30 -12 39 -12 79 3 39 15 51 16 94 5 43 -11 53 -11 74 3 14 9 25 22 26 29 11
230 -1 281 -71 317 -38 19 -122 25 -190 13z"/>
</g>
</svg>
